# xmcd
#
# Track frame offsets:
#	150
#	13065
#	27052
#	39976
#	52201
#	65477
#	79794
#	92173
#	106947
#	121742
#	135014
#	147044
#	161056
#	176431
#	190247
#	205296
#
# Disc length: 2947
#
# Revision: 1
# Processed by: cddbd v1.5.1PL0 Copyright (c) Steve Scherf et al.
# Submitted via: gmmusic 1.1.10
# Normalized: r0:DSETVAR1
#
DISCID=ce0b8110
DTITLE=Various Artist - The Early Years if Blues 1926-1948 [CD 2)
DYEAR=1900
DGENRE=Blues
TTITLE0=Roosevelt Sykes - Traning Camp Blues
TTITLE1=Billie Holiday - As Time Goes By
TTITLE2=Joe Williams and Sonny Boy Williamson - Wild Cow Moon
TTITLE3=Nora Lee King - Cannon Ball
TTITLE4=George Davis - Flesh Crawling Blues
TTITLE5=Bill Gaither - In the Wee Wee Hours
TTITLE6=Br and - Dangerous Woman
TTITLE7=Casey Bill - W. P. A. Blues
TTITLE8=Curly Weaver - Oh Lawdy Mama
TTITLE9=Peetie Whitestraw - These Times
TTITLE10=Charlie Mc Fadden - People People
TTITLE11=Leroy Carr and Scrapper Blackwell - Midnight Hour Blues
TTITLE12=Butterbeans And Susi - What it Takes to Bring You Back
TTITLE13=Alex and Texas er - Broken Yo-Yo
TTITLE14=Victoria Spivey - Christmas Morning Blues
TTITLE15=Sylvester Palmer - Lonesome Man Blues
EXTD=
EXTT0=
EXTT1=
EXTT2=
EXTT3=
EXTT4=
EXTT5=
EXTT6=
EXTT7=
EXTT8=
EXTT9=
EXTT10=
EXTT11=
EXTT12=
EXTT13=
EXTT14=
EXTT15=
PLAYORDER=
